<mxfile host="app.diagrams.net" modified="2023-12-05T18:27:15.423Z" agent="Mozilla/5.0 (Windows NT 10.0; Win64; x64) AppleWebKit/537.36 (KHTML, like Gecko) Chrome/119.0.0.0 Safari/537.36" etag="NLljGS9dBkmEYpReDRBA" version="22.1.5" type="github">
  <diagram name="Page-1" id="74e2e168-ea6b-b213-b513-2b3c1d86103e">
    <mxGraphModel dx="1824" dy="374" grid="1" gridSize="10" guides="1" tooltips="1" connect="1" arrows="1" fold="1" page="1" pageScale="1" pageWidth="1100" pageHeight="850" background="none" math="0" shadow="0">
      <root>
        <mxCell id="0" />
        <mxCell id="1" parent="0" />
        <mxCell id="oamTHnjzy9KkOL69eSVf-2" style="edgeStyle=orthogonalEdgeStyle;rounded=0;orthogonalLoop=1;jettySize=auto;html=1;exitX=0;exitY=0.5;exitDx=0;exitDy=0;" edge="1" parent="1" source="oamTHnjzy9KkOL69eSVf-4">
          <mxGeometry relative="1" as="geometry">
            <mxPoint x="278.89656856142244" y="300" as="targetPoint" />
            <mxPoint x="480" y="240" as="sourcePoint" />
          </mxGeometry>
        </mxCell>
        <mxCell id="oamTHnjzy9KkOL69eSVf-5" style="edgeStyle=orthogonalEdgeStyle;rounded=0;orthogonalLoop=1;jettySize=auto;html=1;exitX=0.5;exitY=1;exitDx=0;exitDy=0;" edge="1" parent="1" source="oamTHnjzy9KkOL69eSVf-1" target="oamTHnjzy9KkOL69eSVf-4">
          <mxGeometry relative="1" as="geometry" />
        </mxCell>
        <mxCell id="oamTHnjzy9KkOL69eSVf-1" value="&lt;font style=&quot;font-size: 18px;&quot;&gt;Project:&lt;br&gt;Task Manager&lt;/font&gt;" style="rounded=1;whiteSpace=wrap;html=1;" vertex="1" parent="1">
          <mxGeometry x="485" y="100" width="150" height="70" as="geometry" />
        </mxCell>
        <mxCell id="oamTHnjzy9KkOL69eSVf-4" value="&lt;font style=&quot;font-size: 12px;&quot;&gt;Class:&lt;br&gt;Task Manager&lt;/font&gt;" style="rounded=0;whiteSpace=wrap;html=1;" vertex="1" parent="1">
          <mxGeometry x="500" y="210" width="120" height="60" as="geometry" />
        </mxCell>
        <mxCell id="oamTHnjzy9KkOL69eSVf-8" style="edgeStyle=orthogonalEdgeStyle;rounded=0;orthogonalLoop=1;jettySize=auto;html=1;exitX=0;exitY=0.5;exitDx=0;exitDy=0;entryX=0.5;entryY=0;entryDx=0;entryDy=0;" edge="1" parent="1" source="oamTHnjzy9KkOL69eSVf-7" target="oamTHnjzy9KkOL69eSVf-31">
          <mxGeometry relative="1" as="geometry">
            <mxPoint x="-30" y="210" as="targetPoint" />
            <Array as="points">
              <mxPoint x="130" y="330" />
              <mxPoint x="130" y="50" />
              <mxPoint x="-30" y="50" />
            </Array>
          </mxGeometry>
        </mxCell>
        <mxCell id="oamTHnjzy9KkOL69eSVf-23" style="edgeStyle=orthogonalEdgeStyle;rounded=0;orthogonalLoop=1;jettySize=auto;html=1;exitX=0.5;exitY=1;exitDx=0;exitDy=0;" edge="1" parent="1" source="oamTHnjzy9KkOL69eSVf-7">
          <mxGeometry relative="1" as="geometry">
            <mxPoint x="280" y="560" as="targetPoint" />
          </mxGeometry>
        </mxCell>
        <mxCell id="oamTHnjzy9KkOL69eSVf-7" value="&lt;font style=&quot;font-size: 12px;&quot;&gt;Define, what rover will go&lt;/font&gt;" style="rounded=0;whiteSpace=wrap;html=1;" vertex="1" parent="1">
          <mxGeometry x="220" y="300" width="120" height="60" as="geometry" />
        </mxCell>
        <mxCell id="oamTHnjzy9KkOL69eSVf-12" style="edgeStyle=orthogonalEdgeStyle;rounded=0;orthogonalLoop=1;jettySize=auto;html=1;exitX=1;exitY=0.5;exitDx=0;exitDy=0;entryX=0.5;entryY=0;entryDx=0;entryDy=0;" edge="1" parent="1" source="oamTHnjzy9KkOL69eSVf-9" target="oamTHnjzy9KkOL69eSVf-14">
          <mxGeometry relative="1" as="geometry">
            <mxPoint x="219.99999999999977" y="330.1379310344828" as="targetPoint" />
          </mxGeometry>
        </mxCell>
        <mxCell id="oamTHnjzy9KkOL69eSVf-18" style="edgeStyle=orthogonalEdgeStyle;rounded=0;orthogonalLoop=1;jettySize=auto;html=1;exitX=0;exitY=0.5;exitDx=0;exitDy=0;" edge="1" parent="1" source="oamTHnjzy9KkOL69eSVf-9" target="oamTHnjzy9KkOL69eSVf-19">
          <mxGeometry relative="1" as="geometry">
            <mxPoint x="-30.000000000000227" y="450" as="targetPoint" />
          </mxGeometry>
        </mxCell>
        <mxCell id="oamTHnjzy9KkOL69eSVf-9" value="&lt;font style=&quot;font-size: 8px;&quot;&gt;Is the rover available ( isn&#39;t busy with smthng else)?&lt;/font&gt;" style="rhombus;whiteSpace=wrap;html=1;" vertex="1" parent="1">
          <mxGeometry x="-100" y="330" width="140" height="70" as="geometry" />
        </mxCell>
        <mxCell id="oamTHnjzy9KkOL69eSVf-16" style="edgeStyle=orthogonalEdgeStyle;rounded=0;orthogonalLoop=1;jettySize=auto;html=1;exitX=0;exitY=0.5;exitDx=0;exitDy=0;entryX=0.5;entryY=0;entryDx=0;entryDy=0;" edge="1" parent="1" source="oamTHnjzy9KkOL69eSVf-14" target="oamTHnjzy9KkOL69eSVf-9">
          <mxGeometry relative="1" as="geometry" />
        </mxCell>
        <mxCell id="oamTHnjzy9KkOL69eSVf-17" style="edgeStyle=orthogonalEdgeStyle;rounded=0;orthogonalLoop=1;jettySize=auto;html=1;exitX=1;exitY=0.5;exitDx=0;exitDy=0;entryX=0;entryY=0.5;entryDx=0;entryDy=0;" edge="1" parent="1" source="oamTHnjzy9KkOL69eSVf-14" target="oamTHnjzy9KkOL69eSVf-7">
          <mxGeometry relative="1" as="geometry" />
        </mxCell>
        <mxCell id="oamTHnjzy9KkOL69eSVf-14" value="&lt;font style=&quot;font-size: 8px;&quot;&gt;Is the rover nearest ( except already excluded)?&lt;/font&gt;" style="rhombus;whiteSpace=wrap;html=1;" vertex="1" parent="1">
          <mxGeometry x="-100" y="210" width="140" height="70" as="geometry" />
        </mxCell>
        <mxCell id="oamTHnjzy9KkOL69eSVf-21" style="edgeStyle=orthogonalEdgeStyle;rounded=0;orthogonalLoop=1;jettySize=auto;html=1;exitX=0.5;exitY=1;exitDx=0;exitDy=0;" edge="1" parent="1" source="oamTHnjzy9KkOL69eSVf-19">
          <mxGeometry relative="1" as="geometry">
            <mxPoint x="280" y="560" as="targetPoint" />
            <Array as="points">
              <mxPoint x="-30" y="530" />
              <mxPoint x="80" y="530" />
              <mxPoint x="80" y="380" />
              <mxPoint x="280" y="380" />
            </Array>
          </mxGeometry>
        </mxCell>
        <mxCell id="oamTHnjzy9KkOL69eSVf-19" value="Retutn this rover" style="rounded=0;whiteSpace=wrap;html=1;" vertex="1" parent="1">
          <mxGeometry x="-90.00000000000023" y="450" width="120" height="60" as="geometry" />
        </mxCell>
        <mxCell id="oamTHnjzy9KkOL69eSVf-25" style="edgeStyle=orthogonalEdgeStyle;rounded=0;orthogonalLoop=1;jettySize=auto;html=1;exitX=0;exitY=0.5;exitDx=0;exitDy=0;" edge="1" parent="1" source="oamTHnjzy9KkOL69eSVf-24">
          <mxGeometry relative="1" as="geometry">
            <mxPoint x="-50.00000000000023" y="590.1379310344828" as="targetPoint" />
          </mxGeometry>
        </mxCell>
        <mxCell id="oamTHnjzy9KkOL69eSVf-27" style="edgeStyle=orthogonalEdgeStyle;rounded=0;orthogonalLoop=1;jettySize=auto;html=1;exitX=0.5;exitY=1;exitDx=0;exitDy=0;" edge="1" parent="1" source="oamTHnjzy9KkOL69eSVf-24">
          <mxGeometry relative="1" as="geometry">
            <mxPoint x="280.1379310344828" y="680" as="targetPoint" />
          </mxGeometry>
        </mxCell>
        <mxCell id="oamTHnjzy9KkOL69eSVf-24" value="Set a route for rover" style="rounded=0;whiteSpace=wrap;html=1;" vertex="1" parent="1">
          <mxGeometry x="220" y="560" width="120" height="60" as="geometry" />
        </mxCell>
        <mxCell id="oamTHnjzy9KkOL69eSVf-26" value="..." style="rounded=0;whiteSpace=wrap;html=1;" vertex="1" parent="1">
          <mxGeometry x="-180" y="630" width="120" height="60" as="geometry" />
        </mxCell>
        <mxCell id="oamTHnjzy9KkOL69eSVf-30" style="edgeStyle=orthogonalEdgeStyle;rounded=0;orthogonalLoop=1;jettySize=auto;html=1;exitX=0;exitY=0.5;exitDx=0;exitDy=0;" edge="1" parent="1" source="oamTHnjzy9KkOL69eSVf-29">
          <mxGeometry relative="1" as="geometry">
            <mxPoint x="-121.1033472521554" y="750" as="targetPoint" />
          </mxGeometry>
        </mxCell>
        <mxCell id="oamTHnjzy9KkOL69eSVf-43" style="edgeStyle=orthogonalEdgeStyle;rounded=0;orthogonalLoop=1;jettySize=auto;html=1;exitX=0.5;exitY=1;exitDx=0;exitDy=0;" edge="1" parent="1" source="oamTHnjzy9KkOL69eSVf-29">
          <mxGeometry relative="1" as="geometry">
            <mxPoint x="280.1379310344828" y="840" as="targetPoint" />
          </mxGeometry>
        </mxCell>
        <mxCell id="oamTHnjzy9KkOL69eSVf-29" value="Set a number for elevator queue (with 2 priors)" style="whiteSpace=wrap;html=1;" vertex="1" parent="1">
          <mxGeometry x="220" y="680" width="120" height="60" as="geometry" />
        </mxCell>
        <mxCell id="oamTHnjzy9KkOL69eSVf-32" style="edgeStyle=orthogonalEdgeStyle;rounded=0;orthogonalLoop=1;jettySize=auto;html=1;exitX=0.5;exitY=1;exitDx=0;exitDy=0;" edge="1" parent="1" source="oamTHnjzy9KkOL69eSVf-31" target="oamTHnjzy9KkOL69eSVf-14">
          <mxGeometry relative="1" as="geometry" />
        </mxCell>
        <mxCell id="oamTHnjzy9KkOL69eSVf-31" value="Rover Definer func" style="shape=hexagon;perimeter=hexagonPerimeter2;whiteSpace=wrap;html=1;fixedSize=1;" vertex="1" parent="1">
          <mxGeometry x="-100" y="90" width="140" height="50" as="geometry" />
        </mxCell>
        <mxCell id="oamTHnjzy9KkOL69eSVf-34" style="edgeStyle=orthogonalEdgeStyle;rounded=0;orthogonalLoop=1;jettySize=auto;html=1;exitX=0.5;exitY=1;exitDx=0;exitDy=0;entryX=0.5;entryY=0;entryDx=0;entryDy=0;" edge="1" parent="1" source="oamTHnjzy9KkOL69eSVf-33" target="oamTHnjzy9KkOL69eSVf-26">
          <mxGeometry relative="1" as="geometry" />
        </mxCell>
        <mxCell id="oamTHnjzy9KkOL69eSVf-33" value="Route setter func" style="shape=hexagon;perimeter=hexagonPerimeter2;whiteSpace=wrap;html=1;fixedSize=1;" vertex="1" parent="1">
          <mxGeometry x="-190" y="565" width="140" height="50" as="geometry" />
        </mxCell>
        <mxCell id="oamTHnjzy9KkOL69eSVf-36" style="edgeStyle=orthogonalEdgeStyle;rounded=0;orthogonalLoop=1;jettySize=auto;html=1;exitX=0.5;exitY=1;exitDx=0;exitDy=0;" edge="1" parent="1" source="oamTHnjzy9KkOL69eSVf-35">
          <mxGeometry relative="1" as="geometry">
            <mxPoint x="-120" y="850" as="targetPoint" />
          </mxGeometry>
        </mxCell>
        <mxCell id="oamTHnjzy9KkOL69eSVf-35" value="Queue number setter func" style="shape=hexagon;perimeter=hexagonPerimeter2;whiteSpace=wrap;html=1;fixedSize=1;" vertex="1" parent="1">
          <mxGeometry x="-190" y="750" width="140" height="50" as="geometry" />
        </mxCell>
        <mxCell id="oamTHnjzy9KkOL69eSVf-42" value="...&lt;br&gt;" style="whiteSpace=wrap;html=1;" vertex="1" parent="1">
          <mxGeometry x="-180" y="850" width="120" height="60" as="geometry" />
        </mxCell>
        <mxCell id="oamTHnjzy9KkOL69eSVf-44" value="Mark rover available" style="whiteSpace=wrap;html=1;" vertex="1" parent="1">
          <mxGeometry x="220" y="840" width="120" height="60" as="geometry" />
        </mxCell>
      </root>
    </mxGraphModel>
  </diagram>
</mxfile>
